<?xml version="1.0" standalone="no"?>
<!DOCTYPE svg PUBLIC "-//W3C//DTD SVG 20010904//EN"
 "http://www.w3.org/TR/2001/REC-SVG-20010904/DTD/svg10.dtd">
<svg version="1.0" xmlns="http://www.w3.org/2000/svg"
 width="700.000000pt" height="700.000000pt" viewBox="0 0 700.000000 700.000000"
 preserveAspectRatio="xMidYMid meet">
<metadata>
Created by potrace 1.11, written by Peter Selinger 2001-2013
</metadata>
<g transform="translate(0.000000,700.000000) scale(0.100000,-0.100000)"
fill="#000000" stroke="none">
<path d="M2525 6562 c-41 -26 -46 -32 -111 -162 -31 -63 -61 -121 -67 -127 -7
-10 -28 6 -81 58 -39 39 -81 78 -94 86 -53 36 -166 2 -195 -59 -16 -35 -22
-64 -32 -138 -3 -25 -7 -56 -9 -70 -3 -14 -7 -43 -11 -65 -3 -22 -12 -80 -20
-130 -7 -49 -16 -108 -20 -130 -5 -36 -17 -112 -31 -200 -2 -16 -6 -41 -9 -55
-2 -14 -7 -45 -10 -70 -3 -25 -12 -83 -20 -130 -8 -47 -17 -105 -20 -130 -3
-25 -7 -56 -10 -70 -3 -14 -21 -130 -40 -259 -37 -245 -45 -296 -50 -321 -2
-8 -4 -22 -4 -30 -1 -8 -11 -26 -23 -40 -88 -97 -118 -175 -125 -325 -6 -106
-7 -111 -38 -146 -120 -134 -210 -316 -232 -470 -15 -106 -8 -278 16 -369 43
-165 155 -351 274 -454 l44 -38 -28 -105 c-15 -57 -57 -193 -93 -301 -95 -291
-104 -382 -46 -499 39 -78 126 -169 226 -235 184 -121 490 -232 772 -279 40
-7 75 -15 77 -19 2 -3 6 -26 9 -50 12 -101 63 -208 129 -271 69 -67 176 -114
270 -118 15 -1 17 -15 17 -153 0 -173 9 -205 69 -245 66 -45 155 -18 194 57
16 31 17 58 15 225 -3 177 -5 193 -27 234 -45 85 -130 146 -218 156 -113 13
-124 20 -152 86 -12 28 -21 52 -19 54 2 2 89 6 193 10 213 6 291 11 385 21 36
4 74 8 85 9 19 2 81 10 150 21 72 11 191 37 228 50 l40 14 57 -54 c60 -58 102
-74 158 -61 86 18 129 125 82 203 -28 45 -304 318 -341 338 -26 13 -75 15
-116 5 -1 -1 -16 -16 -32 -33 -37 -39 -53 -105 -40 -157 2 -7 -3 -15 -11 -16
-346 -64 -881 -83 -1100 -40 -14 3 -41 8 -60 11 -223 39 -459 122 -652 230
-48 26 -136 113 -140 139 -7 36 17 129 95 370 25 77 53 166 61 198 9 31 19 57
22 57 4 0 32 -7 63 -15 31 -8 70 -17 88 -20 20 -3 51 -24 85 -58 84 -84 107
-91 288 -95 133 -2 160 0 190 15 75 39 102 128 57 194 -38 58 -74 69 -223 69
-119 0 -133 2 -149 20 -27 30 -27 74 -1 99 21 20 34 21 335 21 346 1 307 8
386 -64 86 -77 231 -152 366 -187 89 -24 276 -32 371 -16 281 45 534 237 664
502 68 140 88 232 87 400 -1 172 -21 256 -93 400 -95 190 -223 316 -414 410
-128 63 -224 87 -371 90 -263 6 -479 -80 -668 -265 l-58 -57 -67 65 c-181 176
-402 263 -652 257 -125 -3 -155 -8 -242 -35 -32 -10 -58 -16 -58 -13 0 2 20
31 45 63 50 65 63 92 70 153 3 23 12 80 19 127 8 47 17 103 20 125 3 22 12 81
20 130 8 50 18 110 21 135 3 25 12 83 20 130 8 47 17 108 21 135 3 28 8 57 9
67 2 9 7 38 11 65 3 26 8 57 10 68 2 10 6 37 9 60 3 22 8 51 10 65 7 38 12 72
35 225 11 77 23 146 25 153 3 9 23 -5 57 -38 72 -69 128 -81 200 -44 33 17 53
46 103 151 22 46 43 83 47 83 3 0 21 -26 39 -57 42 -76 75 -110 113 -119 29
-7 39 -8 86 -5 20 1 97 72 137 126 12 17 31 41 42 54 12 13 21 27 21 31 0 5 6
10 14 13 10 4 32 -24 70 -88 66 -110 96 -135 164 -137 59 -3 85 12 138 79 22
26 47 57 57 67 9 11 27 35 40 53 12 18 25 33 28 33 3 0 28 -36 54 -81 77 -130
84 -137 174 -154 38 -7 82 18 153 89 l66 66 36 -108 c20 -59 43 -118 52 -130
20 -30 64 -51 113 -56 46 -4 73 10 178 95 l72 59 11 -55 c6 -31 14 -73 16 -93
11 -85 62 -138 142 -146 34 -3 53 3 108 35 36 22 68 39 71 39 3 0 16 9 30 20
14 11 29 20 33 20 7 0 17 -46 25 -110 7 -59 19 -110 32 -137 25 -53 86 -81
164 -74 9 0 44 21 78 46 34 25 63 45 65 45 4 0 13 -41 23 -105 18 -108 116
-159 220 -114 25 10 46 19 48 19 5 0 -24 -98 -125 -420 -176 -560 -417 -1463
-516 -1934 -17 -84 -43 -216 -48 -241 -10 -64 -27 -152 -37 -196 -10 -45 -12
-47 -52 -52 -32 -4 -51 -15 -79 -46 -50 -53 -54 -109 -15 -169 28 -41 79 -59
188 -66 162 -9 214 -54 205 -179 -8 -122 -36 -152 -156 -163 -50 -4 -71 0
-150 30 -51 20 -102 36 -115 36 -42 0 -93 -29 -115 -65 -46 -74 -11 -170 78
-212 24 -11 31 -20 27 -33 -7 -23 -10 -34 -34 -152 -27 -127 -30 -144 -36
-198 -3 -25 -8 -56 -10 -70 -3 -14 -7 -52 -10 -85 -4 -33 -8 -71 -10 -84 -3
-13 -7 -81 -11 -150 -4 -75 -11 -129 -18 -134 -11 -7 -99 -35 -132 -41 -105
-20 -156 -25 -314 -32 -153 -6 -191 -18 -227 -73 -45 -66 -18 -156 57 -194 30
-15 55 -17 180 -12 80 2 163 7 185 10 50 6 127 17 140 21 6 1 27 5 49 9 107
18 238 77 298 133 40 37 47 69 52 243 5 153 8 191 27 339 13 109 18 135 40
235 17 77 47 184 54 193 1 1 22 5 46 8 187 24 308 120 360 284 27 83 34 254
13 314 -39 114 -101 188 -192 233 l-54 26 6 41 c3 23 8 52 10 66 3 14 14 75
25 135 11 61 34 175 51 255 17 80 33 156 36 170 3 14 7 33 10 42 3 10 7 30 10
45 3 16 39 163 80 328 42 165 77 307 79 315 2 8 10 38 18 65 9 28 37 127 62
220 26 94 67 238 92 320 24 83 60 204 80 270 19 66 85 275 146 465 67 210 111
361 111 386 0 56 -39 107 -99 129 -45 18 -46 17 -122 -10 -43 -16 -95 -36
-115 -46 -20 -11 -39 -15 -42 -11 -2 4 -12 46 -21 92 -10 47 -24 100 -32 117
-26 57 -114 94 -172 72 -14 -6 -50 -28 -78 -50 -29 -22 -53 -36 -54 -32 0 4
-2 15 -4 23 -5 26 -16 93 -21 127 -9 71 -33 107 -90 135 -49 25 -95 15 -185
-38 -108 -64 -119 -68 -120 -46 0 9 -2 28 -5 42 -22 129 -35 182 -49 203 -32
49 -131 76 -181 49 -10 -5 -62 -44 -114 -86 -52 -41 -97 -72 -101 -68 -4 4
-24 59 -44 122 -42 126 -67 161 -128 178 -40 11 -98 2 -124 -20 -9 -7 -50 -47
-91 -88 l-74 -75 -31 54 c-85 144 -107 172 -148 190 -41 19 -78 19 -125 1 -13
-5 -51 -44 -86 -87 -35 -42 -75 -90 -89 -106 l-26 -30 -46 80 c-25 44 -58 94
-72 111 -23 27 -68 47 -102 45 -7 0 -25 -1 -39 -2 -30 -1 -91 -60 -169 -164
-27 -36 -53 -66 -57 -66 -4 -1 -23 28 -43 63 -19 35 -49 82 -66 105 -48 67
-124 89 -184 53z m-221 -2518 c166 -40 282 -119 387 -263 24 -34 25 -39 13
-73 -7 -21 -15 -50 -18 -65 -3 -15 -8 -39 -11 -53 -4 -14 -9 -75 -10 -136 -3
-115 9 -202 43 -311 l20 -63 -222 -1 c-121 0 -236 -2 -254 -5 -93 -12 -212
-102 -254 -193 -21 -47 -22 -47 -52 -37 -278 99 -449 406 -392 706 46 244 239
443 480 494 76 16 203 16 270 0z m1463 -17 c158 -53 289 -165 361 -309 164
-328 27 -718 -304 -864 -170 -75 -385 -67 -553 22 -116 60 -228 184 -280 309
-35 83 -40 104 -47 207 -19 259 129 503 371 613 129 59 315 68 452 22z"/>
<path d="M2184 3486 c-91 -40 -109 -166 -33 -230 61 -52 148 -42 197 22 85
111 -35 264 -164 208z"/>
<path d="M3581 3342 c-80 -40 -102 -135 -49 -204 109 -143 321 17 217 163 -22
31 -76 59 -113 59 -11 0 -36 -8 -55 -18z"/>
</g>
</svg>
